<svg width="1275" height="400" viewBox="0 0 1275 400" fill="none" xmlns="http://www.w3.org/2000/svg">
<g clip-path="url(#clip0_525_1856)">
<path d="M310.07 255.68C304.304 255.68 299.032 251.914 296.945 246.3L264.432 158.812C258.701 143.486 244.302 133.182 228.559 133.182C212.815 133.182 198.416 143.486 192.72 158.812L160.208 246.3C158.121 251.914 152.849 255.68 147.083 255.68H133.073V265.282H221.801C231.318 265.282 240.057 259.041 243.524 249.772L252.793 224.807C254.915 219.119 260.081 215.426 265.918 215.426C271.756 215.426 276.956 219.193 279.043 224.807L288.313 249.772C291.744 259.041 300.483 265.282 310.035 265.282H324.257V255.68H310.035H310.07ZM165.55 255.68C166.859 253.908 167.991 251.914 168.769 249.772L201.282 162.284C205.598 150.614 216.565 142.784 228.559 142.784C240.552 142.784 251.484 150.614 255.835 162.284L259.55 172.292C255.729 170.519 251.555 169.485 247.238 169.485C234.396 169.485 223.11 177.573 218.44 190.055L197.567 246.263C195.48 251.877 190.209 255.644 184.442 255.644H165.55V255.68ZM244.231 221.335L234.962 246.3C232.875 251.914 227.603 255.68 221.837 255.68H202.945C204.254 253.908 205.386 251.914 206.164 249.772L227.073 193.564C230.328 184.774 238.288 179.124 247.274 179.124C256.26 179.124 264.291 184.922 267.475 193.564L272.392 206.822C270.305 206.194 268.147 205.824 265.918 205.824C256.224 205.824 247.698 211.918 244.196 221.335H244.231Z" fill="#4C9AF8"/>
<path d="M397.207 265.283L351.286 141.898H369.01L405.98 241.684L441.783 141.898H459.331L414.754 265.283H397.207Z" fill="black"/>
<path d="M453.281 238.841C453.281 217.347 473.553 213.1 491.277 210.995C504.968 209.592 516.113 209.407 516.113 202.021C516.113 191.274 507.657 183.703 494.992 183.703C482.326 183.703 472.88 190.942 471.536 201.689H455.333C457.031 182.817 473.411 169.596 495.346 169.596C517.28 169.596 531.997 183.334 531.997 203.092V247.335C531.997 250.326 533.519 251.729 536.561 251.729H541.443V265.283H532.988C523.542 265.283 518.306 261.036 517.775 252.948C517.598 252.062 517.422 250.991 517.422 249.957C512.186 260.519 502.209 266.871 486.855 266.871C466.406 266.871 453.068 256.124 453.245 238.841H453.281ZM516.113 228.611V216.091C512.575 221.557 503.129 222.628 492.657 223.847C480.84 225.25 469.519 227.023 469.519 238.139C469.519 247.298 477.303 252.948 489.614 252.948C505.145 252.948 516.113 242.903 516.113 228.611Z" fill="black"/>
<path d="M552.906 265.283V171.849H565.89L567.765 189.834C573.497 177.684 583.969 171.147 598.827 171.147H602.047V187.729H598.827C580.077 187.729 569.11 198.845 569.11 217.347V265.283H552.906Z" fill="black"/>
<path d="M610.502 145.406C610.502 138.722 615.384 133.773 621.823 133.773C628.262 133.773 633.144 138.722 633.144 145.406C633.144 152.091 628.403 157.409 621.823 157.409C615.243 157.409 610.502 152.128 610.502 145.406ZM613.721 265.282V171.849H629.925V265.282H613.721Z" fill="black"/>
<path d="M644.111 238.841C644.111 217.347 664.383 213.1 682.107 210.995C695.799 209.592 706.943 209.407 706.943 202.021C706.943 191.274 698.487 183.703 685.822 183.703C673.157 183.703 663.711 190.942 662.366 201.689H646.163C647.861 182.817 664.241 169.596 686.176 169.596C708.11 169.596 722.828 183.334 722.828 203.092V247.335C722.828 250.326 724.349 251.729 727.392 251.729H732.274V265.283H723.818C714.372 265.283 709.136 261.036 708.606 252.948C708.429 252.062 708.252 250.991 708.252 249.957C703.016 260.519 693.039 266.871 677.685 266.871C657.236 266.871 643.899 256.124 644.076 238.841H644.111ZM706.943 228.611V216.091C703.405 221.557 693.959 222.628 683.487 223.847C671.671 225.25 660.35 227.023 660.35 238.139C660.35 247.298 668.133 252.948 680.445 252.948C695.976 252.948 706.943 242.903 706.943 228.611Z" fill="black"/>
<path d="M778.478 265.283C760.258 265.283 750.6 255.755 750.6 237.954V186.141H734.396V171.849H750.6V141.898H766.803V171.849H790.613V186.141H766.803V237.437C766.803 246.264 771.013 250.991 778.973 250.991H788.95V265.283H778.478Z" fill="black"/>
<path d="M800.059 145.406C800.059 138.722 804.941 133.773 811.38 133.773C817.819 133.773 822.701 138.722 822.701 145.406C822.701 152.091 817.96 157.409 811.38 157.409C804.8 157.409 800.059 152.128 800.059 145.406ZM803.278 265.282V171.849H819.482V265.282H803.278Z" fill="black"/>
<path d="M833.491 217.679C833.491 186.658 853.091 169.559 878.068 169.559C906.76 169.559 922.645 190.905 922.645 217.679C922.645 249.587 903.717 267.388 878.068 267.388C849.199 267.388 833.491 246.042 833.491 217.679ZM906.088 217.679C906.088 197.589 895.12 183.999 878.068 183.999C861.016 183.999 850.049 197.552 850.049 217.679C850.049 240.428 862.36 252.948 878.068 252.948C895.969 252.948 906.088 237.437 906.088 217.679Z" fill="black"/>
<path d="M936.689 265.283V171.849H949.708L951.229 185.956C956.961 176.096 968.636 169.559 981.973 169.559C1001.04 169.559 1013.88 182.595 1013.88 203.387V265.246H997.504V204.089C997.504 192.087 990.075 184.331 977.409 184.331C962.551 184.331 953.105 195.078 952.928 208.668V265.246H936.724L936.689 265.283Z" fill="black"/>
<path d="M1026.87 238.841C1026.87 217.347 1047.14 213.1 1064.86 210.995C1078.56 209.592 1089.7 209.407 1089.7 202.021C1089.7 191.274 1081.24 183.703 1068.58 183.703C1055.91 183.703 1046.47 190.942 1045.12 201.689H1028.92C1030.62 182.817 1047 169.596 1068.93 169.596C1090.87 169.596 1105.59 183.334 1105.59 203.092V247.335C1105.59 250.326 1107.11 251.729 1110.15 251.729H1115.03V265.283H1106.58C1097.13 265.283 1091.89 261.036 1091.36 252.948C1091.19 252.062 1091.01 250.991 1091.01 249.957C1085.77 260.519 1075.8 266.871 1060.44 266.871C1040.03 266.871 1026.66 256.124 1026.83 238.841H1026.87ZM1089.7 228.611V216.091C1086.16 221.557 1076.68 222.628 1066.24 223.847C1054.43 225.25 1043.11 227.023 1043.11 238.139C1043.11 247.298 1050.89 252.948 1063.2 252.948C1078.73 252.948 1089.7 242.903 1089.7 228.611Z" fill="black"/>
<path d="M1126.85 265.283V133.072H1143.23V265.283H1126.85Z" fill="black"/>
</g>
<defs>
<clipPath id="clip0_525_1856">
<rect width="1009.86" height="134.316" fill="white" transform="translate(133.073 133.072)"/>
</clipPath>
</defs>
</svg>
